<?xml version="1.0" encoding="UTF-8" standalone="no"?>
<svg
   xmlns:dc="http://purl.org/dc/elements/1.1/"
   xmlns:cc="http://creativecommons.org/ns#"
   xmlns:rdf="http://www.w3.org/1999/02/22-rdf-syntax-ns#"
   xmlns:svg="http://www.w3.org/2000/svg"
   xmlns="http://www.w3.org/2000/svg"
   xmlns:sodipodi="http://sodipodi.sourceforge.net/DTD/sodipodi-0.dtd"
   xmlns:inkscape="http://www.inkscape.org/namespaces/inkscape"
   inkscape:version="1.0 (4035a4fb49, 2020-05-01)"
   sodipodi:docname="Logo 2_Cropped.svg"
   viewBox="0 0 2313.3149 908.19054"
   height="908.19055"
   width="2313.3149"
   xml:space="preserve"
   id="svg1558"
   version="1.1"><metadata
     id="metadata1564"><rdf:RDF><cc:Work
         rdf:about=""><dc:format>image/svg+xml</dc:format><dc:type
           rdf:resource="http://purl.org/dc/dcmitype/StillImage" /><dc:title></dc:title></cc:Work></rdf:RDF></metadata><defs
     id="defs1562" /><sodipodi:namedview
     inkscape:current-layer="g1568"
     inkscape:window-maximized="1"
     inkscape:window-y="-8"
     inkscape:window-x="1912"
     inkscape:cy="261.25602"
     inkscape:cx="1206.3663"
     inkscape:zoom="0.33656131"
     fit-margin-bottom="0"
     fit-margin-right="0"
     fit-margin-left="0"
     fit-margin-top="0"
     showgrid="false"
     id="namedview1560"
     inkscape:window-height="1017"
     inkscape:window-width="1920"
     inkscape:pageshadow="2"
     inkscape:pageopacity="0"
     guidetolerance="10"
     gridtolerance="10"
     objecttolerance="10"
     borderopacity="1"
     bordercolor="#666666"
     pagecolor="#ffffff" /><g
     transform="matrix(1.3333333,0,0,-1.3333333,-79.434169,1781.9317)"
     inkscape:label="ink_ext_XXXXXX"
     inkscape:groupmode="layer"
     id="g1566">
     <style>svg { background-color: #444ca8; }</style>
     <g
       transform="scale(0.1)"
       id="g1568"><path
         d="M 17945.619,6553.0585 H 595.75628 V 13364.488 H 17945.619 V 6553.0585"
         style="fill:none;fill-opacity:1;fill-rule:nonzero;stroke:none;stroke-width:0.666925"
         id="path1572" /><path
         id="path1574"
         style="fill:#ffffff;fill-opacity:1;fill-rule:nonzero;stroke:none"
         d="m 2574.21,8565.3 h 187.95 c 87.46,0 150.49,21.7 189.04,65.1 38.56,43.4 57.86,104.7 57.86,184.1 0,77.8 -20.79,138 -62.3,180.7 -41.51,42.6 -102.68,64 -183.47,64 -73.41,0 -133.28,-21 -179.6,-62.9 -46.35,-41.9 -69.53,-97 -69.53,-165.1 h -260.23 l -2.21,6.6 c -4.45,123.8 41.7,227.8 138.45,311.9 96.74,84.2 220.01,126.3 369.77,126.3 157.91,0 283.93,-40.1 378.09,-120.1 94.16,-80.1 141.24,-193.9 141.24,-341.4 0,-69 -21.12,-135.7 -63.39,-200.2 -42.24,-64.5 -102.32,-114.5 -180.13,-150.1 91.9,-32.7 159.57,-82.3 202.94,-149 43.36,-66.8 65.05,-142.8 65.05,-228 0,-148.3 -50.96,-264.9 -152.91,-349.8 -101.95,-84.9 -232.25,-127.3 -390.89,-127.3 -149.76,0 -275.62,39.9 -377.56,119.6 -101.92,79.6 -150.69,189.9 -146.22,330.8 l 2.23,6.7 h 260.23 c 0,-71.6 24.06,-129.6 72.27,-173.8 48.17,-44.3 112.33,-66.5 192.4,-66.5 83.74,0 149.72,22.6 197.93,67.7 48.21,45.2 72.27,109.2 72.27,192 0,91 -22.04,158.1 -66.14,201.4 -44.12,43.3 -112.52,65 -205.19,65 h -187.95 v 212.3" /><path
         id="path1576"
         style="fill:#ffffff;fill-opacity:1;fill-rule:nonzero;stroke:none"
         d="M 3973.09,9035.7 V 7850.3 h 246.87 c 134.21,0 239.64,43.7 316.42,131.1 76.72,87.4 115.05,200.4 115.05,338.9 V 8568 c 0,137.1 -38.33,249.3 -115.05,336.6 -76.78,87.4 -182.21,131.1 -316.42,131.1 z M 3702.88,7633.4 v 1619.2 h 524.9 c 205.29,0 372.32,-64.1 500.96,-192.4 C 4857.39,8932 4921.7,8767 4921.7,8565.3 v -245.7 c 0,-202.4 -64.31,-367.3 -192.96,-494.9 -128.64,-127.5 -295.67,-191.3 -500.96,-191.3 h -524.9" /><path
         id="path1578"
         style="fill:#ffffff;fill-opacity:1;fill-rule:nonzero;stroke:none"
         d="m 6219.3,8464.2 h 362.51 c 100.13,0 175.32,26.7 225.78,80.1 50.4,53.3 75.59,121.2 75.59,203.5 0,82.3 -25.19,150.8 -75.59,205.7 -50.46,54.9 -125.65,82.2 -225.78,82.2 H 6219.3 Z m 0,-216.9 v -613.9 h -270.21 v 1619.2 h 632.72 c 178.7,0 318.61,-46.1 419.8,-138.4 101.25,-92.3 151.84,-213.7 151.84,-364.2 0,-152 -50.59,-273.8 -151.84,-365.3 -101.19,-91.6 -241.1,-137.4 -419.8,-137.4 H 6219.3" /><path
         id="path1580"
         style="fill:#ffffff;fill-opacity:1;fill-rule:nonzero;stroke:none"
         d="m 7781.73,8522 h 313.58 c 108.28,0 187.25,20.7 236.92,62.2 49.67,41.6 74.46,104.9 74.46,190.2 0,81.6 -24.47,145.5 -73.4,191.8 -48.87,46.4 -123.4,69.5 -223.53,69.5 h -328.03 z m 0,-216.8 v -671.8 h -270.2 v 1619.2 h 598.23 c 180.89,0 320.67,-40.7 419.28,-122.3 98.59,-81.6 147.93,-197.9 147.93,-349.2 0,-83.8 -21.68,-155.9 -65.05,-216.3 -43.37,-60.5 -106.62,-108.8 -189.64,-145.1 91.17,-28.9 156.81,-76.2 196.86,-141.8 39.99,-65.6 60.01,-146.3 60.01,-241.9 v -134.5 c 0,-47.5 5.97,-93.9 17.84,-139.1 11.8,-45.2 31.83,-79.7 60.01,-103.4 v -25.6 h -278.03 c -29.64,24.5 -48.74,63 -57.23,115.7 -8.55,52.6 -12.79,104.2 -12.79,154.6 v 130.1 c 0,83 -23.74,149 -71.15,197.9 -47.48,49 -112.73,73.5 -195.75,73.5 h -360.32" /><path
         id="path1582"
         style="fill:#ffffff;fill-opacity:1;fill-rule:nonzero;stroke:none"
         d="m 9396.35,7633.4 h -270.27 v 1619.2 h 270.27 V 7633.4" /><path
         id="path1584"
         style="fill:#ffffff;fill-opacity:1;fill-rule:nonzero;stroke:none"
         d="m 11121,7633.4 h -269 l -718.4,1182.2 -6.7,-2.3 V 7633.4 h -270.24 v 1619.2 h 270.24 l 718.4,-1181 6.7,2.2 v 1178.8 h 269 V 7633.4" /><path
         id="path1586"
         style="fill:#ffffff;fill-opacity:1;fill-rule:nonzero;stroke:none"
         d="m 12673.5,9035.7 h -489.3 V 7633.4 h -270.3 v 1402.3 h -489.3 v 216.9 h 1248.9 v -216.9" /><path
         id="path1588"
         style="fill:#ffffff;fill-opacity:1;fill-rule:nonzero;stroke:none"
         d="m 13904.3,7850.3 h 744 v -216.9 h -1014.2 v 1619.2 h 270.2 V 7850.3" /><path
         id="path1590"
         style="fill:#ffffff;fill-opacity:1;fill-rule:nonzero;stroke:none"
         d="m 15904.8,8590.9 c 0,135 -36.1,245.8 -108.4,332.6 -72.3,86.7 -169.9,130.1 -293,130.1 -118.6,0 -212.4,-43.4 -281.4,-130.1 -68.9,-86.8 -103.4,-197.6 -103.4,-332.6 v -293.6 c 0,-136.4 34.5,-248.1 103.4,-335.2 69,-87.2 163.1,-130.7 282.5,-130.7 123.8,0 221.5,43.3 293,130.1 71.6,86.8 107.3,198.7 107.3,335.8 z m 269.2,-293.6 c 0,-197.9 -62.2,-362 -186.3,-492.1 -124.2,-130 -285.3,-195.1 -483.2,-195.1 -194.3,0 -351.9,65.1 -473.2,195.1 -121.2,130.1 -181.9,294.2 -181.9,492.1 v 291.4 c 0,197.2 60.7,361 181.9,491.5 121.3,130.5 278.6,195.8 472.1,195.8 197.9,0 359.2,-65.3 483.7,-195.8 124.6,-130.5 186.9,-294.3 186.9,-491.5 v -291.4" /><g
         transform="scale(1.08982)"
         id="g1592"><path
           id="path1594"
           style="fill:#ffffff;fill-opacity:1;fill-rule:nonzero;stroke:none"
           d="m 16300,7205.3 c -39.5,-56.43 -104.2,-107.63 -194.3,-153.51 -90.1,-45.97 -206,-68.91 -347.5,-68.91 -179,0 -326.1,56.62 -441.8,169.85 -115.8,113.32 -173.5,259.67 -173.5,439.33 v 310.24 c 0,179.57 54.5,326.02 163.8,439.25 109.1,113.22 250.2,169.93 422.9,169.93 174.8,0 310.7,-43.03 407.6,-129.1 97,-86.07 146.6,-198.11 148.5,-336.3 l -1.9,-6.05 H 16049 c -5.5,81.57 -34.6,147.45 -87.2,197.46 -52.8,50.01 -129.1,75.06 -229,75.06 -102.8,0 -185.7,-38.54 -248.5,-115.25 -63.1,-76.8 -94.5,-174.34 -94.5,-292.62 v -311.97 c 0,-119.57 34.2,-218.02 102.5,-295.1 68.5,-77.17 157,-115.8 265.9,-115.8 77.5,0 140.5,9 188.7,26.98 48.4,17.98 83.4,39.18 105.2,63.68 v 301.24 h -294.9 v 185.72 H 16300 V 7205.3" /></g><path
         id="path1596"
         style="fill:#ffffff;fill-opacity:1;fill-rule:evenodd;stroke:none"
         d="m 12307.5,6926.5 v 235 H 6249.26 v -235 h 6058.24" /><path
         id="path1598"
         style="fill:#ffffff;fill-opacity:1;fill-rule:evenodd;stroke:none"
         d="m 12981.9,12716.9 v -910.3 H 5710.6 v 910.3 z m 0,-1046.1 v -611.1 H 5710.6 v 611.1 z m 356.6,-4744.3 -5.5,6009.8 -6.1,22.9 -8.4,15.3 c -30.8,61.1 -91.1,99 -157.5,99 H 5531.51 c -34.28,0 -67.69,-10.2 -96.98,-29.6 -50.41,-33.2 -80.54,-88.8 -80.54,-148.7 V 6926.5 h 356.61 v 3997.4 h 7271.3 V 6926.5 h 356.6" /><path
         id="path1600"
         style="fill:#ffffff;fill-opacity:1;fill-rule:nonzero;stroke:none"
         d="m 8658.97,10279.6 c 33.46,0 60.59,-27.1 60.59,-60.6 0,-33.5 -27.13,-60.6 -60.59,-60.6 -33.48,0 -60.61,27.1 -60.61,60.6 0,33.5 27.13,60.6 60.61,60.6" /><path
         id="path1602"
         style="fill:#ffffff;fill-opacity:1;fill-rule:nonzero;stroke:none"
         d="m 8052.94,10764.4 c 33.47,0 60.6,-27.1 60.6,-60.6 0,-33.4 -27.13,-60.6 -60.6,-60.6 -33.47,0 -60.6,27.2 -60.6,60.6 0,33.5 27.13,60.6 60.6,60.6" /><path
         id="path1604"
         style="fill:#ffffff;fill-opacity:1;fill-rule:nonzero;stroke:none"
         d="m 9477.1,10294.8 v 136.3 h -424.22 v -136.3 l 161.77,-121.4 c 30.39,20.3 70.06,20.5 100.67,0 l 161.78,121.4" /><path
         id="path1606"
         style="fill:#ffffff;fill-opacity:1;fill-rule:nonzero;stroke:none"
         d="m 8386.25,9794.8 c 0,50.1 -40.78,90.9 -90.9,90.9 -50.13,0 -90.9,-40.8 -90.9,-90.9 0,-50.1 40.77,-90.9 90.9,-90.9 50.12,0 90.9,40.8 90.9,90.9" /><path
         id="path1608"
         style="fill:#ffffff;fill-opacity:1;fill-rule:nonzero;stroke:none"
         d="m 8416.56,9188.8 c 33.46,0 60.59,-27.2 60.59,-60.6 0,-33.5 -27.13,-60.6 -60.59,-60.6 -33.48,0 -60.61,27.1 -60.61,60.6 0,33.4 27.13,60.6 60.61,60.6" /><path
         id="path1610"
         style="fill:#ffffff;fill-opacity:1;fill-rule:nonzero;stroke:none"
         d="m 8840.77,11097.7 h 666.63 c 16.73,0 30.3,-13.5 30.3,-30.3 0,-16.7 -13.57,-30.3 -30.3,-30.3 h -666.63 c -16.73,0 -30.3,13.6 -30.3,30.3 0,16.8 13.57,30.3 30.3,30.3 z m 848.44,30.4 c 33.46,0 60.6,-27.2 60.6,-60.7 0,-33.4 -27.14,-60.6 -60.6,-60.6 -33.48,0 -60.6,27.2 -60.6,60.6 0,33.5 27.12,60.7 60.6,60.7 z m -1060.55,-333.4 h 1272.66 v 1295.1 c 0,38.2 -31,69.2 -69.23,69.2 H 8697.88 c -38.23,0 -69.22,-31 -69.22,-69.2 v -1295.1" /><path
         id="path1612"
         style="fill:#ffffff;fill-opacity:1;fill-rule:nonzero;stroke:none"
         d="m 10386.1,10158.4 c 0,83.5 -67.9,151.5 -151.5,151.5 -83.5,0 -151.5,-68 -151.5,-151.5 0,-83.5 68,-151.5 151.5,-151.5 83.6,0 151.5,68 151.5,151.5" /><path
         id="path1614"
         style="fill:#ffffff;fill-opacity:1;fill-rule:nonzero;stroke:none"
         d="m 10355.8,9370.6 c 33.5,0 60.6,-27.2 60.6,-60.6 0,-33.5 -27.1,-60.6 -60.6,-60.6 -33.4,0 -60.6,27.1 -60.6,60.6 0,33.4 27.2,60.6 60.6,60.6" /><path
         id="path1616"
         style="fill:#ffffff;fill-opacity:1;fill-rule:nonzero;stroke:none"
         d="m 10416.4,10703.8 c 33.5,0 60.6,-27.1 60.6,-60.6 0,-33.4 -27.1,-60.6 -60.6,-60.6 -33.4,0 -60.6,27.2 -60.6,60.6 0,33.5 27.2,60.6 60.6,60.6" /><path
         id="path1618"
         style="fill:#ffffff;fill-opacity:1;fill-rule:nonzero;stroke:none"
         d="m 9032.29,10491.7 h 465.39 l 339.37,242.4 H 8692.91 l 339.38,-242.4" /><path
         id="path1620"
         style="fill:#ffffff;fill-opacity:1;fill-rule:nonzero;stroke:none"
         d="m 9749.81,10037.2 c 33.47,0 60.6,-27.1 60.6,-60.6 0,-33.5 -27.13,-60.6 -60.6,-60.6 -33.47,0 -60.6,27.1 -60.6,60.6 0,33.5 27.13,60.6 60.6,60.6" /><path
         id="path1622"
         style="fill:#ffffff;fill-opacity:1;fill-rule:nonzero;stroke:none"
         d="m 9318.64,9463.3 h -109.6 v 755.7 h 109.6 v -755.7" /><path
         id="path1624"
         style="fill:#ffffff;fill-opacity:1;fill-rule:nonzero;stroke:none"
         d="m 9260.35,9589 -51.31,-125.7 c 0,0 9.92,-74.8 -29.14,-113.9 -39.06,-39.1 -57.59,-54.7 -53.82,-136.4 h 134.27 v 376" /><path
         id="path1626"
         style="fill:#ffffff;fill-opacity:1;fill-rule:nonzero;stroke:none"
         d="m 9263.84,9589 54.8,-125.7 c 0,0 -9.9,-69.7 25.65,-111.8 55.65,-44.2 52.06,-82.6 52.06,-138.5 h -132.51 v 376" /><path
         id="path1628"
         style="fill:#ffffff;fill-opacity:1;fill-rule:nonzero;stroke:none"
         d="m 9275.22,9213 h -24.49 v 282.7 h 24.49 V 9213" /><rect
         transform="scale(1,-1)"
         y="-13367.385"
         x="554.66602"
         height="6761.5405"
         width="17400.076"
         id="rect2200"
         style="opacity:1;fill:none;fill-opacity:1;stroke:none;stroke-width:6.31013;stroke-opacity:1" /></g></g></svg>
