<?xml version="1.0" encoding="UTF-8"?>
<svg version="1.1" viewBox="0 0 2002 2001.6" xml:space="preserve" xmlns="http://www.w3.org/2000/svg" xmlns:cc="http://creativecommons.org/ns#" xmlns:dc="http://purl.org/dc/elements/1.1/" xmlns:rdf="http://www.w3.org/1999/02/22-rdf-syntax-ns#"><metadata><rdf:RDF><cc:Work rdf:about=""><dc:format>image/svg+xml</dc:format><dc:type rdf:resource="http://purl.org/dc/dcmitype/StillImage"/><dc:title/></cc:Work></rdf:RDF></metadata><g transform="matrix(1.3333 0 0 -1.3333 -332.32 2334.1)"><g transform="scale(.1)"><g transform="scale(1.0741)"><path d="m9310.2 2322.2h-59.76l4686.7 3776.2-914 298.86-66.9 5977.2-7190.2 52.8-228.53 24.6s-1930.3-1997.1-3210.1-3361.3c-7.03 70.29-7.03 144.12-7.03 217.95 0 3860.5 3129.2 6989.8 6989.8 6989.8s6989.8-3129.3 6989.8-6989.8c0-3857-3129.2-6986.3-6989.8-6986.3" fill="#444ca8"/></g><path d="m9935.8 2494.2c-4037.1 34-7315 3255.4-7435.9 7269.8 1374.6 1465.3 3447.9 3610.3 3447.9 3610.3l245.46-26.5 7722.9-56.6 71.8-6420 981.8-321-5034-4056" fill="#292f77"/><g fill="#fff"><path d="m14969 6551.1c0 354.8-287.7 642.5-642.5 642.5h-8653c-354.85 0-642.5-287.7-642.5-642.5h9938" fill-rule="evenodd"/><path d="m14092 7148.3-5.7 6159.8-6.2 23.4-8.6 15.8c-31.7 62.5-93.4 101.4-161.5 101.4h-7820c-35.13 0-69.38-10.5-99.4-30.3-51.67-34-82.56-91-82.56-152.5v-6117.6h365.51v4097.1h3072.6v139.2h-3072.6v626.3h3072.6v139.3h-3072.6v933h7452.8v-933h-3223.9v-139.3h3223.9v-626.3h-3223.9v-139.2h3223.9v-4097.1h365.6" fill-rule="evenodd"/><g><path d="m9268.2 10250c34.31 0 62.11-27.8 62.11-62.1s-27.8-62.1-62.11-62.1c-34.3 0-62.12 27.8-62.12 62.1s27.82 62.1 62.12 62.1"/><path d="m8647.1 10747c34.31 0 62.12-27.8 62.12-62.2 0-34.3-27.81-62.1-62.12-62.1s-62.12 27.8-62.12 62.1c0 34.4 27.81 62.2 62.12 62.2"/><path d="m8988.7 9753c0 51.4-41.8 93.2-93.17 93.2-51.38 0-93.18-41.8-93.18-93.2s41.8-93.2 93.18-93.2c51.37 0 93.17 41.8 93.17 93.2"/><path d="m9019.8 9131.8c34.3 0 62.11-27.8 62.11-62.1s-27.81-62.1-62.11-62.1c-34.31 0-62.12 27.8-62.12 62.1s27.81 62.1 62.12 62.1"/><path d="m11128 10126c0 85.6-69.7 155.3-155.3 155.3s-155.3-69.7-155.3-155.3 69.7-155.3 155.3-155.3 155.3 69.7 155.3 155.3"/><path d="m11097 9318.2c34.3 0 62.1-27.8 62.1-62.1s-27.8-62.1-62.1-62.1-62.1 27.8-62.1 62.1 27.8 62.1 62.1 62.1"/><path d="m11159 10685c34.3 0 62.1-27.8 62.1-62.1s-27.8-62.1-62.1-62.1-62.1 27.8-62.1 62.1 27.8 62.1 62.1 62.1"/><path d="m10476 10002c34.3 0 62.1-27.8 62.1-62.1 0-34.4-27.8-62.2-62.1-62.2-34.4 0-62.2 27.8-62.2 62.2 0 34.3 27.8 62.1 62.2 62.1"/><path d="m10168 10303v161.5h-502.54v-161.5l191.61-143.7c36.01 24 83 24.2 119.27 0l191.66 143.7"/><path d="m9414.2 11254h789.7c19.8 0 35.8-16.1 35.8-35.9s-16-35.9-35.8-35.9h-789.7c-19.82 0-35.89 16.1-35.89 35.9s16.07 35.9 35.89 35.9zm1005 35.9c39.6 0 71.8-32.2 71.8-71.8 0-39.7-32.2-71.8-71.8-71.8s-71.8 32.1-71.8 71.8c0 39.6 32.2 71.8 71.8 71.8zm-1256.2-394.9h1507.6v1534.1c0 45.3-36.7 82-82 82h-1343.6c-45.28 0-81.99-36.7-81.99-82v-1534.1"/><path d="m9641.1 10536h551.24l402 287.2h-1355.2l402.01-287.2"/><path d="m9980.2 9318.2h-129.82v895.2h129.82v-895.2"/></g><path d="m11434 7063.3h-3003.5v977.9h3003.5v-977.9" fill-rule="evenodd"/><path d="m10709 7936.4h-1553.2v977.9h1553.2v-977.9" fill-rule="evenodd"/><path d="m9891.1 9353.8-40.71-35.6 64.91-124.2 64.91 124.2-37.97 50.2"/></g></g></g></svg>
